<svg width="61" height="61" viewBox="0 0 61 61" fill="none" xmlns="http://www.w3.org/2000/svg">
<path d="M30.501 35.8966C33.5094 35.8966 35.9481 33.4578 35.9481 30.4495C35.9481 27.4411 33.5094 25.0023 30.501 25.0023C27.4926 25.0023 25.0539 27.4411 25.0539 30.4495C25.0539 33.4578 27.4926 35.8966 30.501 35.8966Z" fill="#00D8FF"/>
<path fill-rule="evenodd" clip-rule="evenodd" d="M30.5021 19.3744C37.8156 19.3744 44.6096 20.4238 49.7323 22.1874C55.9045 24.3123 59.6993 27.5331 59.6993 30.4495C59.6993 33.4887 55.6775 36.9104 49.0495 39.1064C44.0385 40.7666 37.4444 41.6333 30.5021 41.6333C23.3842 41.6333 16.644 40.8198 11.5766 39.0882C5.16535 36.8968 1.30381 33.4308 1.30381 30.4495C1.30381 27.5568 4.92713 24.3608 11.0125 22.2392C16.1543 20.4465 23.1161 19.3744 30.5011 19.3744H30.5021Z" stroke="#00D8FF" stroke-width="1.23587"/>
<path fill-rule="evenodd" clip-rule="evenodd" d="M20.8616 24.9437C24.5154 18.6083 28.8184 13.2471 32.9053 9.69042C37.8294 5.4052 42.5154 3.72698 45.0418 5.1838C47.6746 6.70208 48.6295 11.8956 47.2206 18.7342C46.1565 23.9045 43.6121 30.0495 40.1438 36.0635C36.5878 42.2296 32.5161 47.662 28.4848 51.1857C23.3837 55.6448 18.452 57.2586 15.8695 55.7692C13.3634 54.325 12.4051 49.5888 13.6073 43.2572C14.6231 37.9074 17.1722 31.3411 20.8605 24.9436L20.8616 24.9437Z" stroke="#00D8FF" stroke-width="1.23587"/>
<path fill-rule="evenodd" clip-rule="evenodd" d="M20.8684 36.0796C17.2044 29.7513 14.7097 23.3446 13.6685 18.0276C12.415 11.6214 13.3012 6.72337 15.8253 5.26232C18.4555 3.73959 23.4319 5.50597 28.6529 10.1419C32.6005 13.6469 36.654 18.9192 40.1323 24.9276C43.6985 31.0876 46.3713 37.3285 47.4111 42.5807C48.7268 49.2272 47.6619 54.3056 45.0817 55.7992C42.5782 57.2486 37.9969 55.7141 33.1119 51.5103C28.9844 47.9587 24.5686 42.4707 20.8684 36.0795V36.0796Z" stroke="#00D8FF" stroke-width="1.23587"/>
</svg>
